<mxfile host="65bd71144e">
    <diagram name="Page-1" id="pscVqw5MkYJO_kQoXnNj">
        <mxGraphModel dx="1488" dy="338" grid="0" gridSize="10" guides="1" tooltips="1" connect="1" arrows="1" fold="1" page="1" pageScale="1" pageWidth="850" pageHeight="1100" math="0" shadow="0">
            <root>
                <mxCell id="0"/>
                <mxCell id="1" parent="0"/>
                <mxCell id="VpqRDjkE_MsImU34JFe0-1" value="&lt;strong&gt;&lt;u&gt;Sum of first &quot;&lt;span class=&quot;ql-cursor&quot;&gt;ï»¿&lt;/span&gt;n&quot; Natural Numbers&lt;/u&gt;&lt;/strong&gt;" style="text;whiteSpace=wrap;html=1;" parent="1" vertex="1">
                    <mxGeometry x="317" y="15" width="217" height="36" as="geometry"/>
                </mxCell>
                <mxCell id="VpqRDjkE_MsImU34JFe0-2" value="Sum(n) = 1 + 2 + 3 +4 +5 +6 +7 +8 +9 + ... + n" style="text;whiteSpace=wrap;html=1;" parent="1" vertex="1">
                    <mxGeometry x="288.0028571428571" y="77" width="274" height="36" as="geometry"/>
                </mxCell>
                <mxCell id="VpqRDjkE_MsImU34JFe0-3" value="&lt;b&gt;&lt;u&gt;Math formula:&lt;br&gt;&lt;/u&gt;&lt;/b&gt;" style="text;whiteSpace=wrap;html=1;" parent="1" vertex="1">
                    <mxGeometry x="100" y="46" width="217" height="36" as="geometry"/>
                </mxCell>
                <mxCell id="VpqRDjkE_MsImU34JFe0-4" value="&lt;span style=&quot;white-space: pre;&quot;&gt;&#9;&lt;/span&gt;&amp;nbsp; &amp;nbsp;&amp;nbsp; = 1 + 2 + 3 +4 +5 + 6 + ... + (n-1) + n" style="text;whiteSpace=wrap;html=1;" parent="1" vertex="1">
                    <mxGeometry x="288.0028571428571" y="104.00428571428566" width="274" height="36" as="geometry"/>
                </mxCell>
                <mxCell id="VpqRDjkE_MsImU34JFe0-6" value="" style="shape=flexArrow;endArrow=classic;html=1;rounded=0;" parent="1" edge="1">
                    <mxGeometry width="50" height="50" relative="1" as="geometry">
                        <mxPoint x="425.2119220050542" y="133.00428571428552" as="sourcePoint"/>
                        <mxPoint x="425.21" y="170" as="targetPoint"/>
                    </mxGeometry>
                </mxCell>
                <mxCell id="VpqRDjkE_MsImU34JFe0-7" value="Sum(n) =" style="text;whiteSpace=wrap;html=1;" parent="1" vertex="1">
                    <mxGeometry x="288.01" y="182" width="56.99" height="36" as="geometry"/>
                </mxCell>
                <mxCell id="VpqRDjkE_MsImU34JFe0-8" value="" style="endArrow=none;html=1;rounded=0;" parent="1" edge="1">
                    <mxGeometry width="50" height="50" relative="1" as="geometry">
                        <mxPoint x="362" y="222" as="sourcePoint"/>
                        <mxPoint x="362" y="173" as="targetPoint"/>
                    </mxGeometry>
                </mxCell>
                <mxCell id="VpqRDjkE_MsImU34JFe0-9" value="" style="endArrow=none;html=1;rounded=0;" parent="1" edge="1">
                    <mxGeometry width="50" height="50" relative="1" as="geometry">
                        <mxPoint x="362" y="172" as="sourcePoint"/>
                        <mxPoint x="385" y="172" as="targetPoint"/>
                    </mxGeometry>
                </mxCell>
                <mxCell id="VpqRDjkE_MsImU34JFe0-10" value="" style="endArrow=none;html=1;rounded=0;" parent="1" edge="1">
                    <mxGeometry width="50" height="50" relative="1" as="geometry">
                        <mxPoint x="362" y="221" as="sourcePoint"/>
                        <mxPoint x="385" y="221" as="targetPoint"/>
                    </mxGeometry>
                </mxCell>
                <mxCell id="VpqRDjkE_MsImU34JFe0-11" value="&lt;span style=&quot;white-space: pre;&quot;&gt;&#9;&lt;/span&gt;&amp;nbsp; &amp;nbsp;&amp;nbsp; = Sum(n-1) + n&amp;nbsp;&amp;nbsp;&amp;nbsp;&amp;nbsp;&amp;nbsp;&amp;nbsp;&amp;nbsp;&amp;nbsp;&amp;nbsp;&amp;nbsp;&amp;nbsp;&amp;nbsp;&amp;nbsp;&amp;nbsp;&amp;nbsp;&amp;nbsp;&amp;nbsp;&amp;nbsp;&amp;nbsp;&amp;nbsp;&amp;nbsp;&amp;nbsp;&amp;nbsp;&amp;nbsp;&amp;nbsp;&amp;nbsp; if n &amp;lt; 0" style="text;whiteSpace=wrap;html=1;" parent="1" vertex="1">
                    <mxGeometry x="338.0028571428571" y="171.00428571428566" width="274" height="36" as="geometry"/>
                </mxCell>
                <mxCell id="VpqRDjkE_MsImU34JFe0-12" value="&lt;span style=&quot;white-space: pre;&quot;&gt;&#9;&lt;/span&gt;&amp;nbsp; &amp;nbsp;&amp;nbsp; = 0 &amp;nbsp;&amp;nbsp;&amp;nbsp;&amp;nbsp;&amp;nbsp;&amp;nbsp;&amp;nbsp;&amp;nbsp;&amp;nbsp;&amp;nbsp;&amp;nbsp;&amp;nbsp;&amp;nbsp;&amp;nbsp;&amp;nbsp;&amp;nbsp;&amp;nbsp;&amp;nbsp;&amp;nbsp;&amp;nbsp;&amp;nbsp;&amp;nbsp;&amp;nbsp;&amp;nbsp;&amp;nbsp;&amp;nbsp;&amp;nbsp;&amp;nbsp;&amp;nbsp;&amp;nbsp;&amp;nbsp;&amp;nbsp;&amp;nbsp;&amp;nbsp;&amp;nbsp;&amp;nbsp;&amp;nbsp;&amp;nbsp;&amp;nbsp;&amp;nbsp;&amp;nbsp;&amp;nbsp;&amp;nbsp;&amp;nbsp; if n = 0" style="text;whiteSpace=wrap;html=1;" parent="1" vertex="1">
                    <mxGeometry x="338.0028571428571" y="195.00428571428566" width="274" height="36" as="geometry"/>
                </mxCell>
                <mxCell id="VpqRDjkE_MsImU34JFe0-13" value="&lt;b&gt;&lt;u&gt;Recursive Code:&lt;br&gt;&lt;/u&gt;&lt;/b&gt;" style="text;whiteSpace=wrap;html=1;" parent="1" vertex="1">
                    <mxGeometry x="100" y="222" width="217" height="36" as="geometry"/>
                </mxCell>
                <mxCell id="VpqRDjkE_MsImU34JFe0-14" value="&lt;b&gt;int &lt;/b&gt;sum(&lt;b&gt;int &lt;/b&gt;n)&lt;br&gt;&lt;div&gt;{&lt;/div&gt;&lt;div&gt;&lt;span style=&quot;white-space: pre;&quot;&gt;&#9;if (n==0)&lt;/span&gt;&lt;/div&gt;&lt;div&gt;&lt;span style=&quot;white-space: pre;&quot;&gt;&lt;span style=&quot;white-space: pre;&quot;&gt;&#9;&lt;/span&gt;{&lt;/span&gt;&lt;/div&gt;&lt;div&gt;&lt;span style=&quot;white-space: pre;&quot;&gt;&lt;span style=&quot;white-space: pre;&quot;&gt;&#9;&lt;/span&gt;&lt;span style=&quot;white-space: pre;&quot;&gt;&#9;&lt;/span&gt;return 0;&lt;br&gt;&lt;/span&gt;&lt;/div&gt;&lt;div&gt;&lt;span style=&quot;white-space: pre;&quot;&gt;&lt;span style=&quot;white-space: pre;&quot;&gt;&#9;&lt;/span&gt;}&lt;/span&gt;&lt;br&gt;&lt;span style=&quot;white-space: pre;&quot;&gt;&#9;&lt;/span&gt;else&lt;/div&gt;&lt;div&gt;&lt;span style=&quot;white-space: pre;&quot;&gt;&#9;&lt;/span&gt;{&lt;/div&gt;&lt;div&gt;&lt;span style=&quot;white-space: pre;&quot;&gt;&#9;&lt;/span&gt;&lt;span style=&quot;white-space: pre;&quot;&gt;&#9;&lt;/span&gt;return sum(n-1)+n;&lt;br&gt;&lt;/div&gt;&lt;div&gt;&lt;span style=&quot;white-space: pre;&quot;&gt;&#9;&lt;/span&gt;}&lt;br&gt;&lt;/div&gt;}" style="text;whiteSpace=wrap;html=1;" parent="1" vertex="1">
                    <mxGeometry x="100.00285714285712" y="260" width="274" height="36" as="geometry"/>
                </mxCell>
                <mxCell id="VpqRDjkE_MsImU34JFe0-39" value="" style="group" parent="1" vertex="1" connectable="0">
                    <mxGeometry x="291.75" y="239" width="366.5" height="175" as="geometry"/>
                </mxCell>
                <mxCell id="VpqRDjkE_MsImU34JFe0-15" value="sum(3)" style="text;html=1;align=center;verticalAlign=middle;whiteSpace=wrap;rounded=0;" parent="VpqRDjkE_MsImU34JFe0-39" vertex="1">
                    <mxGeometry x="174" y="24" width="60" height="30" as="geometry"/>
                </mxCell>
                <mxCell id="VpqRDjkE_MsImU34JFe0-17" value="sum(2)" style="text;html=1;align=center;verticalAlign=middle;whiteSpace=wrap;rounded=0;" parent="VpqRDjkE_MsImU34JFe0-39" vertex="1">
                    <mxGeometry x="114" y="45" width="60" height="30" as="geometry"/>
                </mxCell>
                <mxCell id="VpqRDjkE_MsImU34JFe0-18" value="sum(1)" style="text;html=1;align=center;verticalAlign=middle;whiteSpace=wrap;rounded=0;" parent="VpqRDjkE_MsImU34JFe0-39" vertex="1">
                    <mxGeometry x="56" y="68" width="60" height="30" as="geometry"/>
                </mxCell>
                <mxCell id="VpqRDjkE_MsImU34JFe0-20" value="sum(0)" style="text;html=1;align=center;verticalAlign=middle;whiteSpace=wrap;rounded=0;" parent="VpqRDjkE_MsImU34JFe0-39" vertex="1">
                    <mxGeometry y="91" width="60" height="30" as="geometry"/>
                </mxCell>
                <mxCell id="VpqRDjkE_MsImU34JFe0-26" value="&lt;font color=&quot;#ff0000&quot;&gt;+1&lt;/font&gt;" style="text;html=1;align=center;verticalAlign=middle;whiteSpace=wrap;rounded=0;" parent="VpqRDjkE_MsImU34JFe0-39" vertex="1">
                    <mxGeometry x="116" y="91" width="60" height="30" as="geometry"/>
                </mxCell>
                <mxCell id="VpqRDjkE_MsImU34JFe0-27" value="" style="endArrow=none;html=1;rounded=0;exitX=0.5;exitY=0;exitDx=0;exitDy=0;entryX=0;entryY=0.5;entryDx=0;entryDy=0;" parent="VpqRDjkE_MsImU34JFe0-39" source="VpqRDjkE_MsImU34JFe0-20" target="VpqRDjkE_MsImU34JFe0-18" edge="1">
                    <mxGeometry width="50" height="50" relative="1" as="geometry">
                        <mxPoint x="8" y="89" as="sourcePoint"/>
                        <mxPoint x="58" y="39" as="targetPoint"/>
                    </mxGeometry>
                </mxCell>
                <mxCell id="VpqRDjkE_MsImU34JFe0-29" value="" style="endArrow=none;html=1;rounded=0;exitX=0.5;exitY=0;exitDx=0;exitDy=0;entryX=1;entryY=0.5;entryDx=0;entryDy=0;" parent="VpqRDjkE_MsImU34JFe0-39" source="VpqRDjkE_MsImU34JFe0-26" target="VpqRDjkE_MsImU34JFe0-18" edge="1">
                    <mxGeometry width="50" height="50" relative="1" as="geometry">
                        <mxPoint x="8" y="89" as="sourcePoint"/>
                        <mxPoint x="58" y="39" as="targetPoint"/>
                    </mxGeometry>
                </mxCell>
                <mxCell id="VpqRDjkE_MsImU34JFe0-30" value="" style="endArrow=none;html=1;rounded=0;exitX=0.5;exitY=0;exitDx=0;exitDy=0;entryX=0;entryY=0.5;entryDx=0;entryDy=0;" parent="VpqRDjkE_MsImU34JFe0-39" source="VpqRDjkE_MsImU34JFe0-18" target="VpqRDjkE_MsImU34JFe0-17" edge="1">
                    <mxGeometry width="50" height="50" relative="1" as="geometry">
                        <mxPoint x="8" y="89" as="sourcePoint"/>
                        <mxPoint x="58" y="39" as="targetPoint"/>
                    </mxGeometry>
                </mxCell>
                <mxCell id="VpqRDjkE_MsImU34JFe0-31" value="&lt;font color=&quot;#ff3333&quot;&gt;+2&lt;/font&gt;" style="text;html=1;align=center;verticalAlign=middle;whiteSpace=wrap;rounded=0;" parent="VpqRDjkE_MsImU34JFe0-39" vertex="1">
                    <mxGeometry x="171" y="68" width="60" height="30" as="geometry"/>
                </mxCell>
                <mxCell id="VpqRDjkE_MsImU34JFe0-32" value="" style="endArrow=none;html=1;rounded=0;entryX=1;entryY=0.5;entryDx=0;entryDy=0;exitX=0.5;exitY=0;exitDx=0;exitDy=0;" parent="VpqRDjkE_MsImU34JFe0-39" source="VpqRDjkE_MsImU34JFe0-31" target="VpqRDjkE_MsImU34JFe0-17" edge="1">
                    <mxGeometry width="50" height="50" relative="1" as="geometry">
                        <mxPoint x="8" y="89" as="sourcePoint"/>
                        <mxPoint x="58" y="39" as="targetPoint"/>
                    </mxGeometry>
                </mxCell>
                <mxCell id="VpqRDjkE_MsImU34JFe0-34" value="&lt;font color=&quot;#ff3333&quot;&gt;+3&lt;/font&gt;" style="text;html=1;align=center;verticalAlign=middle;whiteSpace=wrap;rounded=0;" parent="VpqRDjkE_MsImU34JFe0-39" vertex="1">
                    <mxGeometry x="234" y="45" width="60" height="30" as="geometry"/>
                </mxCell>
                <mxCell id="VpqRDjkE_MsImU34JFe0-36" value="" style="endArrow=none;html=1;rounded=0;entryX=1;entryY=0.5;entryDx=0;entryDy=0;exitX=0.5;exitY=0;exitDx=0;exitDy=0;" parent="VpqRDjkE_MsImU34JFe0-39" source="VpqRDjkE_MsImU34JFe0-34" target="VpqRDjkE_MsImU34JFe0-15" edge="1">
                    <mxGeometry width="50" height="50" relative="1" as="geometry">
                        <mxPoint x="8" y="89" as="sourcePoint"/>
                        <mxPoint x="58" y="39" as="targetPoint"/>
                    </mxGeometry>
                </mxCell>
                <mxCell id="VpqRDjkE_MsImU34JFe0-37" value="Time Complexity = O(n)&lt;br&gt;Space Complexity = O(n) &lt;font color=&quot;#999999&quot;&gt;(due the recursion stack usage)&lt;/font&gt;" style="text;html=1;align=center;verticalAlign=middle;whiteSpace=wrap;rounded=0;" parent="VpqRDjkE_MsImU34JFe0-39" vertex="1">
                    <mxGeometry x="54.5" y="145" width="312" height="30" as="geometry"/>
                </mxCell>
                <mxCell id="VpqRDjkE_MsImU34JFe0-42" value="&lt;b&gt;&lt;u&gt;For loop Code:&lt;br&gt;&lt;/u&gt;&lt;/b&gt;" style="text;whiteSpace=wrap;html=1;" parent="1" vertex="1">
                    <mxGeometry x="100.00482758620697" y="442.0037931034484" width="123" height="36" as="geometry"/>
                </mxCell>
                <mxCell id="VpqRDjkE_MsImU34JFe0-43" value="&lt;b&gt;int &lt;/b&gt;sum(&lt;b&gt;int &lt;/b&gt;n)&lt;br&gt;&lt;div&gt;{&lt;/div&gt;&lt;div&gt;&lt;span style=&quot;white-space: pre;&quot;&gt;&lt;span style=&quot;white-space: pre;&quot;&gt;&#9;&lt;/span&gt;int S = 0;&lt;/span&gt;&lt;/div&gt;&lt;div&gt;&lt;span style=&quot;white-space: pre;&quot;&gt;&lt;span style=&quot;white-space: pre;&quot;&gt;&#9;&lt;/span&gt;for (int i = 1; i &amp;lt;= n; i++)&lt;br&gt;&lt;span style=&quot;white-space: pre;&quot;&gt;&#9;&lt;/span&gt;{&lt;/span&gt;&lt;/div&gt;&lt;div&gt;&lt;span style=&quot;white-space: pre;&quot;&gt;&lt;span style=&quot;white-space: pre;&quot;&gt;&#9;&lt;/span&gt;&lt;span style=&quot;white-space: pre;&quot;&gt;&#9;&lt;/span&gt;S = S + i;&lt;br&gt;&lt;/span&gt;&lt;/div&gt;&lt;div&gt;&lt;span style=&quot;white-space: pre;&quot;&gt;&lt;span style=&quot;white-space: pre;&quot;&gt;&#9;&lt;/span&gt;}&#9;&lt;/span&gt;&lt;/div&gt;&lt;div&gt;&lt;span style=&quot;white-space: pre;&quot;&gt;&lt;span style=&quot;white-space: pre;&quot;&gt;&#9;&lt;/span&gt;return S;&lt;br&gt;&lt;/span&gt;&lt;/div&gt;&lt;div&gt;}&lt;/div&gt;" style="text;whiteSpace=wrap;html=1;" parent="1" vertex="1">
                    <mxGeometry x="100.00285714285712" y="478" width="274" height="36" as="geometry"/>
                </mxCell>
                <mxCell id="VpqRDjkE_MsImU34JFe0-44" value="Time Complexity = O(n)&lt;br&gt;Space Complexity = O(1)&amp;nbsp;" style="text;html=1;align=center;verticalAlign=middle;whiteSpace=wrap;rounded=0;" parent="1" vertex="1">
                    <mxGeometry x="-24" y="627" width="312" height="30" as="geometry"/>
                </mxCell>
                <mxCell id="VpqRDjkE_MsImU34JFe0-45" value="&lt;b&gt;&lt;u&gt;Best solution:&lt;/u&gt;&lt;/b&gt;" style="text;whiteSpace=wrap;html=1;" parent="1" vertex="1">
                    <mxGeometry x="500.00482758620694" y="442.0037931034484" width="123" height="36" as="geometry"/>
                </mxCell>
                <mxCell id="VpqRDjkE_MsImU34JFe0-46" value="Sum(n) = 1 + 2 + 3 +4 +5 +6 +7 +8 +9 + ... + n&lt;br&gt;&lt;div&gt;&lt;span style=&quot;white-space: pre;&quot;&gt;&lt;br&gt;if we take pairs of (n+1), so, we have n/2 times (n+1):&lt;br&gt;&lt;/span&gt;&lt;/div&gt;&lt;div&gt;&lt;span style=&quot;white-space: pre;&quot;&gt;&#9;&lt;/span&gt;&amp;nbsp;&amp;nbsp;&amp;nbsp;&amp;nbsp; &lt;/div&gt;= (n+1) + [(n-1)+2] + [(n-2)+3] + ... = (n/2)*(n+1)&amp;nbsp;&amp;nbsp; (assuming even n)." style="text;whiteSpace=wrap;html=1;" parent="1" vertex="1">
                    <mxGeometry x="425" y="472" width="400" height="36" as="geometry"/>
                </mxCell>
                <mxCell id="VpqRDjkE_MsImU34JFe0-47" value="&lt;b&gt;int &lt;/b&gt;sum(&lt;b&gt;int &lt;/b&gt;n)&lt;br&gt;&lt;div&gt;{&lt;/div&gt;&lt;div&gt;&lt;span style=&quot;white-space: pre;&quot;&gt;&#9;&lt;/span&gt;(n + &lt;span class=&quot;hljs-number&quot;&gt;1&lt;/span&gt;) * (n / &lt;span class=&quot;hljs-number&quot;&gt;2&lt;/span&gt;) + (n % &lt;span class=&quot;hljs-number&quot;&gt;2&lt;/span&gt; == &lt;span class=&quot;hljs-number&quot;&gt;1&lt;/span&gt; ? (n / &lt;span class=&quot;hljs-number&quot;&gt;2&lt;/span&gt; + &lt;span class=&quot;hljs-number&quot;&gt;1&lt;/span&gt;) : &lt;span class=&quot;hljs-number&quot;&gt;0&lt;/span&gt;);&lt;/div&gt;&lt;div&gt;}&lt;/div&gt;" style="text;whiteSpace=wrap;html=1;" parent="1" vertex="1">
                    <mxGeometry x="424.5028571428571" y="560" width="274" height="36" as="geometry"/>
                </mxCell>
                <mxCell id="VpqRDjkE_MsImU34JFe0-48" value="Time Complexity = O(1)&lt;br&gt;Space Complexity = O(1)&amp;nbsp;" style="text;html=1;align=center;verticalAlign=middle;whiteSpace=wrap;rounded=0;" parent="1" vertex="1">
                    <mxGeometry x="444" y="632" width="312" height="30" as="geometry"/>
                </mxCell>
            </root>
        </mxGraphModel>
    </diagram>
</mxfile>